<svg xmlns="http://www.w3.org/2000/svg" xmlns:xlink="http://www.w3.org/1999/xlink" role="img" aria-label="Finwiser" viewBox="0 0 329.94996 64.044037" width="329.94996" height="64.044037"><title>Finwiser</title><g id="wordmark" transform="translate(-44.705066,-20.583063)"><path fill="#002d56" d="M 160.97,84.49 H 145.85 V 61.47 q 0,-2.81 -0.29,-5.58 -0.29,-2.81 -1,-4.13 -0.84,-1.53 -2.47,-2.23 -1.59,-0.7 -4.47,-0.7 -2.05,0 -4.18,0.66 -2.09,0.66 -4.55,2.11 V 84.49 H 113.84 V 38.07 h 15.04 v 5.13 q 4.01,-3.1 7.69,-4.75 3.72,-1.65 8.23,-1.65 7.61,0 11.87,4.38 4.3,4.38 4.3,13.1 z" id="logon" /><path fill="#002d56" d="M 89.42,33.05 H 60.8 V 44.92 H 87.33 V 57.25 H 60.8 V 84.49 H 44.84 v -63.77 h 44.58 z" id="logof" /><g id="logoi1"><g id="g25" transform="matrix(0.999597,0,0,0.991516,33.944570,-8.357314)" fill="#002d56"><path fill="#002d56" d="M 73.91,93.65 H 58.87 V 47.22 h 15.04 z" id="path1" /></g><ellipse fill="#002d56" id="path24" cx="99.958237" cy="29.224691" rx="6.7004547" ry="7.1103392" /></g><g id="iser" transform="translate(5.4329,0)"><g id="logoi2"><path fill="#002d56" d="M 230.67,84.49 H 215.64 V 38.46 h 15.04 z" id="path5" /><ellipse fill="#002d56" id="path24-9" cx="222.48393" cy="29.224691" rx="6.7004547" ry="7.1103392" /></g><path fill="#002d56" d="m 279.54,68.5 q 0,7.19 -6.52,11.62 -6.52,4.38 -17.84,4.38 -6.27,0 -11.37,-1.16 -5.1,-1.16 -8.19,-2.56 v -12.24 h 1.38 q 1.13,0.79 2.59,1.74 1.5,0.91 4.22,1.98 2.34,0.95 5.31,1.65 2.97,0.66 6.35,0.66 4.43,0 6.56,-0.95 2.13,-0.99 2.13,-2.89 0,-1.69 -1.25,-2.44 -1.25,-0.79 -4.76,-1.49 -1.67,-0.37 -4.55,-0.79 -2.84,-0.45 -5.18,-1.07 -6.39,-1.65 -9.49,-5.13 -3.09,-3.51 -3.09,-8.72 0,-6.7 6.39,-11.12 6.44,-4.46 17.55,-4.46 5.27,0 10.07,1.07 4.85,1.03 7.56,2.23 V 50.55 h -1.3 q -3.34,-2.27 -7.65,-3.68 -4.26,-1.45 -8.65,-1.45 -3.64,0 -6.14,0.99 -2.47,0.99 -2.47,2.81 0,1.65 1.13,2.52 1.13,0.87 5.31,1.74 2.3,0.45 4.93,0.91 2.67,0.41 5.35,1.07 5.93,1.53 8.78,4.84 2.84,3.27 2.84,8.19 z" id="logos" /><g id="logoe" transform="translate(-19.994470,-9.152622)" fill="#002d56"><path fill="#002d56" d="m 352.12,71.94 h -34.43 q 0.33,5.46 4.18,8.35 3.89,2.89 11.41,2.89 4.76,0 9.23,-1.69 4.47,-1.69 7.06,-3.64 h 1.67 v 11.95 q -5.1,2.03 -9.61,2.94 -4.51,0.91 -9.99,0.91 -14.12,0 -21.65,-6.28 -7.52,-6.28 -7.52,-17.9 0,-11.49 7.1,-18.19 7.15,-6.74 19.56,-6.74 11.45,0 17.22,5.75 5.77,5.7 5.77,16.45 z" id="path8" /><path fill="#35d6c6" d="m 337.16,63.22 q -0.13,-4.67 -2.34,-7.03 -2.21,-2.36 -6.89,-2.36 -4.35,0 -7.15,2.23 -2.8,2.23 -3.13,7.15 z" id="path9" /></g><path fill="#002d56" d="m 369.09,52.25 h -1.34 q -0.96,-0.33 -3.09,-0.5 -2.13,-0.17 -3.55,-0.17 -3.22,0 -5.68,0.41 -2.47,0.41 -5.31,1.41 V 84.49 H 335.07 V 38.07 h 15.04 v 6.82 q 4.97,-4.22 8.65,-5.58 3.68,-1.41 6.77,-1.41 0.79,0 1.8,0.04 1,0.04 1.76,0.12 z" id="logor" /></g></g><svg x="117.2318" y="0.0" width="58.0317" height="64.044037" viewBox="0 0 100.0 109.9" preserveAspectRatio="xMidYMid meet" overflow="visible">Finwy<path fill="#002d56" stroke="#35d6c6" stroke-width="2.6" stroke-linejoin="round" d="M32.8,0L62.8,0.6L69,1.9L70.9,3.4L74.9,4.6L75.9,6.2L74.9,13.3L75.2,14.9L76.2,14.2L77.4,10.2L78.9,9L81.1,9L84.2,9.9L92.9,13.6L94.4,15.5L94.4,17.3L88.9,27.2L90.4,27.9L94.4,26.6L97.8,26.3L98.8,26.6L100,28.5L100,30.3L91,57L79.3,87.9L74.3,102.8L72.8,105.9L70.3,108.4L67.2,109.9L64.4,109.9L61,108L58.2,105.3L50.8,95.7L47.7,92.9L45.8,94.1L39.6,103.7L36.2,106.2L35,106.8L31.6,106.8L28.5,105.3L26.3,103.1L24.1,99.1L12.1,65.6L5,40.9L0.6,28.2L0,24.5L0.6,22.9L2.8,21.7L7.1,22L12.1,23.5L12.7,22.6L9.3,14.2L9.6,11.8L10.5,10.8L14.9,9L22,7.1L25.7,7.7L26.9,9L28.2,14.2L28.8,20.4L29.7,21.4L31.6,1.5L32.8,0Z"/><path fill="#35d6c6" d="M22,7.1L25.7,7.7L26.6,8.7L24.8,8.7L24.1,9.3L26,24.1L25.4,26.6L23.5,27.2L14.9,24.8L13.3,25.4L12.1,25.1L11.1,23.5L12.1,23.5L12.7,22.6L9.3,14.2L9.6,11.8L10.5,10.8L14.9,9L22,7.1Z"/><path fill="#35d6c6" d="M78.9,9L81.1,9L84.2,9.9L92.9,13.6L94.1,15.2L92.3,16.1L93.8,17L94.1,18L92.9,20.4L92,21.4L90.1,20.7L84.8,27.2L73.4,29.1L72.1,28.2L72.1,26.3L74.6,18.9L74.9,15.2L76.2,14.2L77.4,10.2L78.9,9Z"/><path fill="#35d6c6" d="M32.8,0L62.8,0.6L65.9,0.9L69.3,2.2L69,3.1L68.1,1.9L67.5,1.9L66.6,3.4L64.1,32.2L63.5,33.1L61,33.7L59.8,33.4L56.7,34.7L48,36.2L44,36.2L29.1,31.6L26.6,29.4L29.4,27.9L29.4,21.7L30,20.7L31.3,3.7L31.6,1.5L32.8,0Z"/><rect x="33.5" y="5.8" width="29" height="30.4" rx="1.4" fill="none" stroke="#002d56" stroke-width="1.8"/><circle cx="48" cy="21" r="4.5" fill="#002d56"/><path fill="#35d6c6" d="M2.8,21.7L7.1,22L9.9,22.9L12.1,25.4L14.6,26.9L13.3,28.2L13.6,28.8L17.6,28.8L43.3,37.2L48,37.2L75.2,31.9L78.3,31.9L79.9,30.3L87.3,28.5L88.5,27.6L90.4,27.9L96,26.3L97.8,26.3L99.1,27.2L95.7,31.9L93.5,38.1L77.1,38.7L75.9,51.1L74,61L72.1,66.3L69.7,70L64.7,74.6L59.8,78L44.6,86.1L41.5,87L33.4,82L26.9,77.1L21.1,71.2L18,66.9L16.1,63.2L14.6,57.3L13.3,45.5L13,35.3L11.1,34.4L3.4,33.7L2.2,32.8L0,26L0,24.5L0.6,22.9L2.8,21.7Z"/><path stroke="#002d56" stroke-width="3.1" stroke-linecap="round" fill="none" d="M20.1,38.6L24.8,38.6M28.2,40.9L33.4,40.9M37.2,42.6L43.7,42.6M47.7,43L54.5,43M58.5,42.1L65,42.1"/><ellipse fill="#002d56" cx="30.8" cy="52.5" rx="4.5" ry="5.1"/><ellipse fill="#002d56" cx="54.1" cy="54.3" rx="5" ry="5.1"/><path fill="none" stroke="#002d56" stroke-width="3.8" stroke-linecap="round" d="M30.3,63.5Q42,75.8 53.6,63.5"/></svg></svg>