<?xml version="1.0" encoding="UTF-8" standalone="no"?>
<!-- Created with Inkscape (http://www.inkscape.org/) -->

<svg
   width="324.51706mm"
   height="64.044037mm"
   viewBox="0 0 324.51706 64.044037"
   version="1.1"
   id="svg1"
   xml:space="preserve"
   inkscape:version="1.4.2 (ebf0e940, 2025-05-08)"
   sodipodi:docname="finwiserlogo.svg"
   xmlns:inkscape="http://www.inkscape.org/namespaces/inkscape"
   xmlns:sodipodi="http://sodipodi.sourceforge.net/DTD/sodipodi-0.dtd"
   xmlns="http://www.w3.org/2000/svg"
   xmlns:svg="http://www.w3.org/2000/svg"><sodipodi:namedview
     id="namedview1"
     pagecolor="#ffffff"
     bordercolor="#000000"
     borderopacity="0.25"
     inkscape:showpageshadow="2"
     inkscape:pageopacity="0.0"
     inkscape:pagecheckerboard="false"
     inkscape:deskcolor="#d1d1d1"
     inkscape:document-units="mm"
     inkscape:zoom="0.80444024"
     inkscape:cx="624.65796"
     inkscape:cy="169.68321"
     inkscape:window-width="1920"
     inkscape:window-height="942"
     inkscape:window-x="0"
     inkscape:window-y="25"
     inkscape:window-maximized="0"
     inkscape:current-layer="layer1" /><defs
     id="defs1"><inkscape:path-effect
       effect="fillet_chamfer"
       id="path-effect17"
       is_visible="true"
       lpeversion="1"
       nodesatellites_param="F,0,0,1,0,5.6013524,0,1 @ F,0,0,1,0,5.6073667,0,1 @ F,0,0,1,0,5.5707985,0,1 @ F,0,0,1,0,5.7025075,0,1"
       radius="0"
       unit="px"
       method="auto"
       mode="F"
       chamfer_steps="1"
       flexible="false"
       use_knot_distance="true"
       apply_no_radius="true"
       apply_with_radius="true"
       only_selected="false"
       hide_knots="false" /><inkscape:path-effect
       effect="fillet_chamfer"
       id="path-effect16"
       is_visible="true"
       lpeversion="1"
       nodesatellites_param="F,0,0,1,0,7.939517,0,1 @ F,0,0,1,0,4.3624789,0,1 @ F,0,0,1,0,7.724411,0,1 @ F,0,0,1,0,5.7578293,0,1"
       radius="0"
       unit="px"
       method="auto"
       mode="F"
       chamfer_steps="1"
       flexible="false"
       use_knot_distance="true"
       apply_no_radius="true"
       apply_with_radius="true"
       only_selected="false"
       hide_knots="false" /><rect
       x="24.77401"
       y="423.18744"
       width="227.2746"
       height="321.60547"
       id="rect68" /><rect
       x="57.087933"
       y="568.04486"
       width="98.018906"
       height="78.233635"
       id="rect67" /></defs><g
     inkscape:label="Layer 1"
     inkscape:groupmode="layer"
     id="layer1"
     transform="translate(-44.705066,-20.583063)"><path
       style="font-weight:bold;font-size:85.121px;line-height:1.6;-inkscape-font-specification:'sans-serif Bold';text-align:center;text-anchor:middle;fill:#002d56;fill-opacity:1;stroke:#35d6c6;stroke-width:0.266003;stroke-opacity:1"
       d="m 369.08911,52.248701 h -1.33719 q -0.9611,-0.33073 -3.09223,-0.49609 -2.13113,-0.16536 -3.55189,-0.16536 -3.21759,0 -5.68302,0.41341 -2.46544,0.4134 -5.30694,1.40556 V 84.494099 H 335.07453 V 38.068991 h 15.04331 v 6.82114 q 4.97264,-4.2167 8.64989,-5.58093 3.67725,-1.40557 6.76948,-1.40557 0.79396,0 1.79684,0.0413 1.00289,0.0413 1.75506,0.12402 z"
       id="logor" /><g
       id="logoe"
       transform="translate(-19.99447,-9.152622)"
       style="stroke:#35d6c6;stroke-opacity:1"><path
         style="font-weight:bold;font-size:85.121px;line-height:1.6;-inkscape-font-specification:'sans-serif Bold';text-align:center;text-anchor:middle;fill:#002d56;fill-opacity:1;stroke:#35d6c6;stroke-width:0.266003;stroke-opacity:1"
         d="m 352.12425,71.943091 h -34.43244 q 0.3343,5.456911 4.17869,8.350728 3.88619,2.893818 11.40784,2.893818 4.76371,0 9.23491,-1.69495 4.47121,-1.69495 7.06199,-3.637942 h 1.67148 v 11.947331 q -5.098,2.025672 -9.61099,2.935157 -4.513,0.909486 -9.98708,0.909486 -14.12399,0 -21.64564,-6.283717 -7.52165,-6.283718 -7.52165,-17.900327 0,-11.492588 7.10378,-18.189707 7.14557,-6.73846 19.55629,-6.73846 11.44962,0 17.21622,5.746294 5.7666,5.704954 5.7666,16.453417 z"
         id="path8" /><path
         style="font-weight:bold;font-size:85.121px;line-height:1.6;-inkscape-font-specification:'sans-serif Bold';text-align:center;text-anchor:middle;fill:transparent;fill-opacity:0;stroke:#35d6c6;stroke-width:0.266003;stroke-opacity:1"
         d="m 337.16453,63.220299 q -0.12536,-4.671448 -2.34007,-7.027842 -2.21471,-2.356394 -6.89484,-2.356394 -4.34585,0 -7.14558,2.232373 -2.79972,2.232373 -3.13401,7.151863 z"
         id="path9" /></g><path
       style="font-weight:bold;font-size:85.121px;line-height:1.6;-inkscape-font-specification:'sans-serif Bold';text-align:center;text-anchor:middle;fill:#002d56;fill-opacity:1;stroke:#35d6c6;stroke-width:0.266003;stroke-opacity:1"
       d="m 279.54213,68.495419 q 0,7.19321 -6.51876,11.61661 -6.51877,4.38207 -17.84302,4.38207 -6.26805,0 -11.36605,-1.15753 -5.09801,-1.15752 -8.19024,-2.56309 v -12.23672 h 1.37897 q 1.12825,0.78547 2.59079,1.73629 1.50433,0.90949 4.22048,1.98434 2.34007,0.95082 5.30694,1.65361 2.96687,0.66144 6.35161,0.66144 4.42942,0 6.56055,-0.95083 2.13113,-0.99216 2.13113,-2.89381 0,-1.69495 -1.2536,-2.43908 -1.25361,-0.78546 -4.76371,-1.48825 -1.67148,-0.37206 -4.55477,-0.78546 -2.84152,-0.45474 -5.18158,-1.07485 -6.39341,-1.653607 -9.48564,-5.126199 -3.09223,-3.513919 -3.09223,-8.722789 0,-6.69712 6.39339,-11.12052 6.43519,-4.46475 17.55052,-4.46475 5.26516,0 10.07065,1.074849 4.84729,1.033501 7.56343,2.232371 V 50.55375 h -1.29539 q -3.34295,-2.27371 -7.64701,-3.679279 -4.26226,-1.446911 -8.6499,-1.446911 -3.63546,0 -6.14268,0.992171 -2.46542,0.992159 -2.46542,2.81113 0,1.65361 1.12825,2.52176 1.12824,0.86814 5.30694,1.73629 2.29828,0.45474 4.93085,0.90948 2.67437,0.41341 5.34873,1.07485 5.93375,1.52959 8.77526,4.83681 2.84151,3.265879 2.84151,8.185368 z"
       id="logos" /><path
       style="font-weight:bold;font-size:85.121px;line-height:1.6;-inkscape-font-specification:'sans-serif Bold';text-align:center;text-anchor:middle;fill:#002d56;fill-opacity:1;stroke:#35d6c6;stroke-width:0.266003;stroke-opacity:1"
       d="M 160.97476,84.494099 H 145.84789 V 61.46757 q 0,-2.811139 -0.2925,-5.580939 -0.29251,-2.81113 -1.00289,-4.13402 -0.83574,-1.52959 -2.46543,-2.232371 -1.5879,-0.70279 -4.4712,-0.70279 -2.04756,0 -4.1787,0.661451 -2.08933,0.661439 -4.55477,2.10835 V 84.494099 H 113.83912 V 38.068991 h 15.04328 v 5.12619 q 4.01155,-3.10052 7.6888,-4.75413 3.71904,-1.65361 8.23203,-1.65361 7.60521,0 11.86749,4.38207 4.30404,4.382059 4.30404,13.104849 z"
       id="logon" /><path
       style="font-weight:bold;font-size:85.121px;line-height:1.6;-inkscape-font-specification:'sans-serif Bold';text-align:center;text-anchor:middle;fill:#002d56;fill-opacity:1;stroke:#35d6c6;stroke-width:0.270738;stroke-opacity:1"
       d="M 89.422361,33.053358 H 60.80135 V 44.917162 H 87.333235 V 57.252088 H 60.80135 V 84.491732 H 44.840435 v -63.7733 h 44.581926 z"
       id="logof" /><g
       id="logomasscot"
       transform="matrix(0.11588613,0,0,0.11588613,128.23381,-5.620602)"
       style="mix-blend-mode:normal;stroke:#002d56;stroke-width:1.00098;stroke-dasharray:none;stroke-opacity:1"><path
         id="lefthand"
         d="M -2.3242188,34.230469 C 0.10058911,39.102333 2.2532279,43.99177 4.1796875,49 h 0.5722656 l 63.7050779,-5.894531 -0.02734,-4.808594 -0.132813,-5.320313 -0.002,-0.04687 L 68,26 66.587891,22.960938 c -0.042,-0.06773 -0.08789,-0.130853 -0.13086,-0.197266 l -0.900573,-1.22455 C 65.34256,21.368304 64.595471,20.53802 64.376953,20.339844 64.196127,20.13779 63.317761,19.41 63.177189,19.255471 62.279072,18.53416 61.986588,18.054097 60.757812,17.5 L 59.455078,16.757812 58.125,16 C 57.488071,15.626023 56.856089,15.282292 56.224609,14.964844 L 54.664662,14.215033 54.019531,13.957031 C 52.463359,13.313538 50.887299,12.797427 49.236328,12.347656 48.30244,12.095167 47.345052,11.863909 46.355469,11.640625 41.541358,10.590006 36.773208,9.44468 32.009766,8.1835938 30.337129,7.7385131 28.663982,7.2944036 26.990234,6.8535156 24.40952,6.1745132 21.829647,5.4955471 19.25,4.8125 16.649524,4.1136009 14.0481,3.4152764 11.443359,2.7324219 L 8.953125,2.0820312 C 5.9812586,1.2697369 3.0381215,0.51969187 0,0 -1.4150687,-0.13446188 -2.7275634,-0.2915864 -3.9589844,-0.34960938 l -3.3398437,0.22070313 c -0.2700258,0.06021909 -0.5361956,0.13235593 -0.7988281,0.22070312 -0.068729,0.02312285 -0.1368266,0.04901264 -0.2050782,0.07421875 -0.2856748,0.10549276 -0.5679603,0.2241483 -0.8457031,0.36914063 -0.017057,0.008902 -0.033752,0.0202369 -0.050781,0.0292969 -0.2726466,0.14511423 -0.5408629,0.31375005 -0.8066405,0.50195305 -0.04822,0.034117 -0.09652,0.06594 -0.144532,0.1015626 -0.254822,0.1892248 -0.506602,0.4045572 -0.755859,0.6386718 -0.316591,0.2970921 -0.628761,0.6289285 -0.9375,1.0058594 -0.0193,0.02357 -0.03932,0.040553 -0.05859,0.064453 l -0.105468,0.1777344 c -0.123056,0.5513676 -0.182153,1.0816613 -0.261719,1.6191406 -0.0564,0.3808287 -0.145952,0.7720139 -0.181641,1.1464844 -0.04861,0.5104346 -0.03862,1.0041649 -0.05078,1.5039063 -0.0097,0.3982194 -0.0492,0.8050999 -0.03711,1.1972656 0.01125,0.3640383 0.06665,0.7168068 0.0957,1.0761718 0.04114,0.5095379 0.06404,1.0239789 0.138671,1.5253909 0.0514,0.345108 0.140851,0.681582 0.207032,1.023437 0.09766,0.504822 0.181087,1.012682 0.308594,1.511719 0.003,0.01172 0.0068,0.02344 0.0098,0.03516 0.424452,1.65222 1.003635,3.276173 1.6875,4.902344 0.6967454,1.656529 1.501642,3.314914 2.3593754,5.003906 1.544512,2.92504 3.0411651,5.864804 4.5136719,8.826172 z"
         transform="translate(297,353)"
         style="fill:#35d6c6;fill-opacity:1;stroke:#002d56;stroke-width:1.00098;stroke-dasharray:none;stroke-opacity:1"
         sodipodi:nodetypes="cccccccccccccccccccccccccccccsssssccsccssssssssccccc" /><path
         id="leftleg"
         d="M 163.23242,391.20117 90.691406,365.86328 c 4.300953,15.59852 7.009805,36.16455 16.867184,49.94531 0.21036,0.29411 0.42954,0.5794 0.64649,0.86719 0.99248,1.31631 2.02908,2.59086 3.16992,3.76172 1.573,0.93631 3.10869,1.72689 4.64062,2.38672 0.40907,0.17587 0.81926,0.32429 1.22852,0.48047 0.33341,0.12746 0.66567,0.26844 1,0.38281 0.46234,0.15794 0.92882,0.28297 1.39453,0.41602 0.30002,0.0858 0.59834,0.18437 0.90039,0.25976 l 0.375,0.0762 c 0.85178,0.19996 1.71273,0.36457 2.58985,0.48243 l 0.88476,0.0918 c 0.61532,0.0628 1.24617,0.0933 1.88086,0.11524 1.518,0.0561 3.0703,0.0414 4.73047,-0.12891 3.73266,-1.24422 6.76985,-3.02878 9.45117,-5.22852 0.62815,-0.51524 1.21497,-1.0828 1.80664,-1.64453 0.38337,-0.36423 0.77979,-0.71073 1.15039,-1.09375 0.30073,-0.31049 0.58338,-0.65408 0.87696,-0.97656 1.73837,-1.9103 3.38357,-3.97229 5.01172,-6.26367 0.53659,-0.76142 1.07841,-1.51811 1.625,-2.27149 l 1.89453,-2.57617 2.3789,-3.16015 c 0.84062,-1.1068 1.68567,-2.21198 2.53125,-3.31641 1.84946,-2.41202 3.66489,-4.84959 5.50586,-7.26758 z"
         transform="translate(297,353)"
         style="fill:#35d6c6;fill-opacity:1;stroke:#002d56;stroke-width:1.00098;stroke-dasharray:none;stroke-opacity:1" /><path
         id="rightleg"
         d="m 337.18945,373.36523 c 0.67468,-2.48532 1.35061,-4.97098 2.0293,-7.45507 l -72.22461,25.22656 c 3.54396,4.81092 7.08036,9.6262 10.72852,14.36133 l 1.83984,2.37695 c 1.29359,1.68151 2.5646,3.35615 3.86719,4.97461 0.48399,0.6014 1.01222,1.13791 1.50781,1.7207 1.50787,1.77303 3.04336,3.50567 4.76367,5.00586 0.39941,0.34832 0.82998,0.65969 1.2461,0.98828 0.37901,0.29929 0.74228,0.61703 1.13671,0.89844 0.3774,0.26925 0.79074,0.49839 1.1836,0.75 0.469,0.30036 0.92098,0.61932 1.41406,0.89258 0.38464,0.21319 0.80849,0.38258 1.20898,0.57812 0.5527,0.26984 1.08854,0.55903 1.67383,0.79297 0.4927,0.19104 0.99928,0.35946 1.52149,0.50782 0.12827,0.0247 0.24135,0.0393 0.36133,0.0586 0.40272,0.0496 0.79585,0.082 1.18945,0.11523 0.15492,-3.2e-4 0.29881,-0.007 0.42773,-0.0234 0.2363,0.0444 0.49686,0.0811 0.76367,0.11328 0.18303,0.008 0.35972,0.001 0.54102,0.006 0.84339,0.0204 1.66905,5.2e-4 2.48047,-0.0566 0.26058,-0.0184 0.52139,-0.0362 0.7793,-0.0625 0.96104,-0.0978 1.90996,-0.23165 2.84375,-0.4375 0.0122,-0.003 0.0249,-0.003 0.0371,-0.006 0.46947,-0.1138 0.8797,-0.24088 1.23046,-0.38282 0.38626,-0.0634 0.8179,-0.17759 1.27149,-0.3164 0.19942,-0.0653 0.39841,-0.14273 0.59766,-0.21289 0.55219,-0.19442 1.10506,-0.42104 1.6582,-0.65235 1.25331,-0.52402 2.509,-1.10588 3.79492,-1.81445 2.17329,-1.71089 3.79232,-2.9959 5.13281,-4.3418 0.20046,-0.20068 0.3858,-0.40212 0.57422,-0.60351 0.12325,-0.13437 0.25078,-0.26711 0.36914,-0.4043 0.40719,-0.47179 0.78555,-0.96758 1.14649,-1.49609 0.09,-0.13175 0.17584,-0.27348 0.26367,-0.41016 0.32028,-0.49834 0.62988,-1.02613 0.92969,-1.60742 0.0394,-0.0765 0.0799,-0.1445 0.11914,-0.22266 0.12281,-0.2447 0.24594,-0.66118 0.36718,-0.92383 0.77134,-1.6679 1.54202,-3.8067 2.38868,-6.48242 1.22027,-3.82956 2.53655,-8.45493 4.52343,-15.64258 0.49187,-1.82029 0.98377,-3.64053 1.48243,-5.45898 0.94646,-3.44033 1.88733,-6.88268 2.82226,-10.32617 0.003,-0.009 0.005,-0.018 0.008,-0.0274 z"
         transform="translate(297,353)"
         style="fill:#35d6c6;fill-opacity:1;stroke:#002d56;stroke-width:1.00098;stroke-dasharray:none;stroke-opacity:1" /><path
         id="Pocket"
         d="M 425.74805,49 H 425 l -63.70703,-5.894531 0.25586,-5.199219 0.0351,-4.978516 0.66602,-6.027343 c 0.0333,-0.151152 0.0451,-0.313138 0.082,-0.462891 l 1.1543,-3.216797 0.002,-0.002 c 0.002,-0.0023 0.004,-0.0056 0.006,-0.0078 v -0.002 l 0.002,-0.002 1.2461,-1.90039 c -2.69002,1.970235 -5.46457,3.272989 -9.29688,4.339843 L 352.5625,26.375 c -2.15467,0.586966 -4.30963,1.172847 -6.46484,1.757812 -3.6014,0.945904 -7.20033,1.896268 -10.79297,2.875 -6.04489,1.663337 -12.09119,3.323331 -18.14258,4.962891 -7.68889,2.082504 -15.37303,4.180713 -23.05273,6.296875 -3.30246,0.910166 -6.60437,1.82146 -9.90821,2.726563 -8.0271,2.196224 -16.05498,4.392224 -24.06055,6.666015 -3.9927,1.136094 -7.98546,2.263716 -11.98242,3.384766 -1.94879,0.545615 -3.89785,1.0936 -5.8457,1.642578 -2.74812,0.793796 -5.49524,1.586936 -8.25,2.357422 l -2.57422,0.716797 c -10.58851,3.135985 -20.64099,3.159241 -31.29687,0.207031 l -3.07422,-0.90625 c -3.50833,-0.986132 -7.01428,-1.975675 -10.51563,-2.986328 -3.14885,-0.909309 -6.30075,-1.807192 -9.45508,-2.697266 -1.30195,-0.366864 -2.60436,-0.734509 -3.90625,-1.101562 l -1.97656,-0.556641 c -2.00254,-0.564663 -4.00422,-1.131394 -6.00586,-1.699219 -9.41674,-2.67438 -18.8456,-5.28954 -28.29883,-7.832031 L 134.97656,41.65625 C 129.81836,40.268399 124.65959,38.882691 119.5,37.5 106.6218,34.059755 93.757075,30.587705 80.982422,26.777344 L 77.46875,25.71875 74.107422,24.726562 71.013672,23.779297 c -2.449247,-0.740649 -4.181384,-1.260603 -6.039063,-2.744141 l 1.482422,1.728516 c 0.04297,0.06641 0.08886,0.129537 0.13086,0.197266 L 68,26 l 0.294922,6.929688 0.002,0.04687 0.132813,5.320313 0.02734,4.808594 L 4.7519531,49 H 4.1796875 c 1.0516962,2.733774 2.0365097,5.502994 2.9609375,8.324219 L 8,60 c 5.541731,17.132937 10.20525,34.409184 14.507812,51.88672 2.817991,11.45358 5.706677,22.87945 8.779297,34.26758 l 0.650391,2.4082 c 0.930507,3.44414 1.861526,6.88814 2.792969,10.33203 2.293937,8.47442 4.569479,16.95322 6.833984,25.43555 15.610117,58.47832 31.277684,116.94376 47.400391,175.2832 0.575806,2.08303 1.151916,4.16665 1.726562,6.25 l 72.541014,25.33789 c 3.19481,-4.19617 6.40431,-8.38078 9.55469,-12.61133 4.28672,-5.75737 8.64421,-11.43967 13.15039,-17.02734 2.62604,-3.24296 5.24327,-6.48796 7.77344,-9.80664 l 1.75781,-2.33398 c 1.15769,-1.53538 2.31397,-3.07181 3.46875,-4.60938 3.6551,-4.94454 7.17838,-11.05243 13.59766,-12.30859 l 2.52734,0.0586 2.53516,0.004 c 6.43739,2.89766 6.4369,2.89718 10.86718,8.72461 l 1.66016,2.08398 c 4.4734,5.56197 8.88724,11.16565 13.21484,16.8418 2.05454,2.69592 4.12247,5.37879 6.23047,8.0332 4.59912,5.78973 9.10769,11.62645 13.48047,17.58984 1.30001,1.77705 2.63789,3.5247 3.94336,5.29688 l 72.22461,-25.22656 c -0.67869,2.48409 -1.35462,4.96975 -2.0293,7.45507 0.80205,-2.95448 1.60615,-5.90844 2.41407,-8.86132 2.90856,-10.62753 5.80214,-21.25873 8.6875,-31.89258 0.47385,-1.74641 0.94788,-3.49387 1.42187,-5.24024 5.61725,-20.69555 11.21975,-41.39494 16.81055,-62.09765 4.08011,-15.10969 8.16883,-30.21763 12.26758,-45.32227 1.00495,-3.7031 2.00985,-7.40596 3.01367,-11.10937 2.52442,-9.31624 5.04023,-18.63451 7.59179,-27.94336 1.03014,-3.75449 2.05876,-7.5098 3.08399,-11.26563 L 393.0625,167.5 c 3.67616,-13.4771 7.10399,-27.01437 10.51562,-40.56055 C 410.10138,101.03693 415.76083,74.009798 425.74805,49 Z"
         transform="translate(297,353)"
         style="fill:#35d6c6;fill-opacity:1;stroke:#002d56;stroke-width:1.00098;stroke-dasharray:none;stroke-opacity:1" /><path
         id="righthand"
         d="m 439,0 -5.41602,-0.35742188 c -0.63809,0.0162709 -1.27626,0.045594 -1.91406,0.0976563 -1.60082,0.13104499 -3.19792,0.3645961 -4.78515,0.66015624 -2.0484,0.38110915 -4.08587,0.83761594 -6.08008,1.32617184 L 417.875,2.484375 c -2.10969,0.5273815 -4.21906,1.0560675 -6.32812,1.5859375 -3.27626,0.8411469 -6.55235,1.6820312 -9.83399,2.5019531 -2.15893,0.5374691 -4.31748,1.0783982 -6.47461,1.6230469 L 392.125,8.984375 c -7.73458,1.93445 -15.35557,3.822609 -22.02148,7.910156 l -1.25196,0.886719 c -1.43138,1.378762 -2.75931,2.536571 -4.10937,3.525391 l -1.2461,1.90039 -0.002,0.002 v 0.002 c -0.002,0.0023 -0.004,0.0056 -0.006,0.0078 l -0.002,0.002 -1.1543,3.216797 c -0.0369,0.149753 -0.0487,0.311739 -0.082,0.462891 l -0.66602,6.027343 -0.0351,4.978516 -0.25586,5.199219 L 425,49 h 0.74805 c 1.77675,-4.449301 3.68954,-8.834755 5.76953,-13.138672 l 1.65039,-3.318359 c 0.36567,-0.736756 0.73653,-1.470927 1.10351,-2.207031 l 0.1504,-0.3125 0.34765,-0.685547 c 0.57668,-1.15437 1.1505,-2.310173 1.73047,-3.462891 0.87875,-1.655326 1.668,-3.218363 2.38281,-4.759766 0.22557,-0.486334 0.3924,-0.965409 0.59961,-1.447265 0.4843,-1.12582 0.95493,-2.24932 1.33008,-3.38086 0.13603,-0.410187 0.26223,-0.823553 0.38281,-1.238281 0.11126,-0.382573 0.22662,-0.76428 0.32422,-1.152344 0.13523,-0.537581 0.24358,-1.088889 0.35156,-1.640625 0.068,-0.347253 0.14637,-0.688759 0.20313,-1.042968 0.10519,-0.656125 0.175,-1.3363932 0.24023,-2.0214848 0.0266,-0.2793349 0.0701,-0.547101 0.0898,-0.8320312 0.0685,-0.9893917 0.10006,-2.0092031 0.082,-3.078125 -0.002,-0.00916 -0.004,-0.018223 -0.006,-0.027344 l -0.55078,-1.890625 c -0.009,-0.021878 -0.0164,-0.048742 -0.0254,-0.070312 l -0.89258,-1.4746094 c -0.007,-0.00791 -0.0128,-0.017497 -0.0195,-0.025391 z"
         transform="translate(297,353)"
         style="fill:#35d6c6;fill-opacity:1;stroke:#002d56;stroke-width:1.00098;stroke-dasharray:none;stroke-opacity:1" /><path
         id="Wbody"
         d="m 68.429688,38.296875 0.02734,4.808594 L 4.7519531,49 H 4.1796875 c 1.0517163,2.734154 2.0364294,5.502749 2.9609375,8.324219 L 8,60 c 5.541731,17.132937 10.20525,34.409184 14.507812,51.88672 2.817992,11.45358 5.706677,22.87945 8.779297,34.26758 l 0.650391,2.4082 c 0.930507,3.44414 1.861526,6.88814 2.792969,10.33203 2.293937,8.47442 4.569479,16.95322 6.833984,25.43555 15.610117,58.47832 31.277684,116.94377 47.400391,175.2832 0.575806,2.08303 1.151916,4.16665 1.726562,6.25 l 72.578124,25.35156 c 3.19244,-4.1931 6.36952,-8.39756 9.51758,-12.625 4.28672,-5.75737 8.64421,-11.43967 13.15039,-17.02734 2.62604,-3.24296 5.24327,-6.48796 7.77344,-9.80664 l 1.75781,-2.33398 c 1.15769,-1.53538 2.31397,-3.07181 3.46875,-4.60938 3.6551,-4.94454 7.17838,-11.05243 13.59766,-12.30859 l 2.52734,0.0586 2.53516,0.004 c 6.43739,2.89766 6.4369,2.89717 10.86718,8.72461 l 1.66016,2.08398 c 4.4734,5.56197 8.88725,11.16759 13.21484,16.84375 2.05455,2.69592 4.12247,5.37684 6.23047,8.03125 4.59912,5.78973 9.10769,11.62645 13.48047,17.58984 1.29716,1.77315 2.59585,3.544 3.89844,5.3125 l 72.26953,-25.24218 c 0.12812,-0.46895 0.25647,-0.93733 0.38477,-1.40625 2.90856,-10.62754 5.80214,-21.25873 8.6875,-31.89258 0.47385,-1.74641 0.94788,-3.49387 1.42187,-5.24024 5.61725,-20.69555 11.21975,-41.39494 16.81055,-62.09765 4.08011,-15.10969 8.16882,-30.21763 12.26758,-45.32227 1.00495,-3.7031 2.00985,-7.40596 3.01367,-11.10937 2.52442,-9.31625 5.04023,-18.63451 7.59179,-27.94336 1.03014,-3.75449 2.05875,-7.5098 3.08399,-11.26563 L 393.0625,167.5 c 3.67616,-13.4771 7.10399,-27.01437 10.51562,-40.56055 C 410.10137,101.03693 415.76083,74.009796 425.74805,49 H 425 l -63.70703,-5.894531 c -0.0504,1.893914 -0.10312,3.787915 -0.16016,5.68164 -0.12437,4.011423 -0.24813,8.021508 -0.36328,12.033203 -0.17926,6.339397 -0.36406,12.678694 -0.56055,19.017579 -0.0658,2.111315 -0.13161,4.222665 -0.19726,6.333984 l -0.0977,3.152344 c -0.12952,4.164828 -0.25974,8.329231 -0.38672,12.494141 -0.40423,13.26166 -0.80154,26.52282 -1.30273,39.78125 -0.0756,1.94569 -0.15053,3.89214 -0.22461,5.83789 -1.09182,32.72106 -5.65976,68.37732 -28.4375,93.75 -2.70826,4.08933 -6.33715,6.73814 -9.8125,10.04688 -2.65076,2.80126 -2.65125,2.7993 -5.62305,4.91406 l -3.12304,2.11718 c -1.74777,1.18998 -3.49748,2.37856 -5.25196,3.5586 L 304,263 c -3.78438,2.55351 -7.57429,5.09781 -11.375,7.62695 l -1.6875,1.12305 c -8.82352,5.87619 -17.66573,11.72363 -26.57031,17.47656 -3.41325,2.20442 -6.82118,4.41191 -10.21094,6.65235 -10.48296,6.95419 -20.92451,13.82312 -32,19.80078 -4.02667,1.68442 -7.96503,3.10024 -12.23047,1.58203 L 208,316 c -20.59417,-11.96095 -20.59417,-11.96095 -40.37109,-25.25391 -4.44011,-2.9837 -8.89732,-5.92532 -13.42579,-8.77343 -14.91829,-9.38111 -30.79687,-18.47576 -44,-30.23047 C 74.445801,196.33565 74.446335,196.33651 71.681641,128.9707 c -0.09125,-1.96886 -0.183974,-3.93944 -0.277344,-5.9082 -1.154169,-24.209903 -2.001899,-48.423595 -2.646485,-72.652344 -0.05523,-2.091312 -0.110553,-4.184137 -0.167968,-6.27539 -0.05391,-1.946191 -0.106788,-3.891686 -0.160156,-5.837891 z"
         style="fill:#002d56;fill-opacity:1;stroke:#002d56;stroke-width:1.00098;stroke-dasharray:none;stroke-opacity:1"
         transform="translate(297,353)"
         sodipodi:nodetypes="cccccccccccsccccccccccccccccccsscsccsccccccccccsccccccccscccccccccccccc" /><path
         d="m 0,0 c 5.55832,6.8287932 4.7093486,18.719468 5.2578125,27.175781 0.085954,1.260799 0.1719086,2.521598 0.2604675,3.820603 0.1793832,2.652993 0.3563536,5.306006 0.5290833,7.959427 0.2188686,3.358487 0.4474284,6.716227 0.6791553,10.073849 0.2236127,3.256717 0.4396732,6.513933 0.6562939,9.771121 0.081221,1.183788 0.162442,2.367575 0.2461243,3.587235 0.3839288,5.968803 0.6649741,11.937491 0.7963562,17.917404 0.027544,1.127663 0.055087,2.255326 0.083466,3.41716 C 8.1500595,87.033041 7.574156,88.392536 5.1875,90.6875 -2.1547186,91.731538 -8.7965224,89.182769 -15.75,87 c -2.406035,-0.740281 -4.812286,-1.479865 -7.21875,-2.21875 -1.166602,-0.360938 -2.333203,-0.721875 -3.535156,-1.09375 -2.894431,-0.874822 -5.792768,-1.692504 -8.714844,-2.46875 -0.778674,-0.21052 -1.557349,-0.42104 -2.359619,-0.637939 -1.399236,-0.374231 -2.801959,-0.735768 -4.208496,-1.081543 -4.63415,-1.269373 -6.391497,-2.850344 -9.025635,-6.811768 -1.498817,-3.440721 -2.695955,-6.967376 -3.890625,-10.523438 -0.349477,-1.019537 -0.698954,-2.039075 -1.059021,-3.089508 -0.734428,-2.151705 -1.46367,-4.305187 -2.188049,-6.460296 -1.107808,-3.28841 -2.237752,-6.56861 -3.370117,-9.848633 -0.712285,-2.095897 -1.423266,-4.192237 -2.132813,-6.289063 -0.337432,-0.976253 -0.674864,-1.952506 -1.022522,-2.958343 -1.703567,-5.12203 -2.93735,-9.423573 -2.336853,-14.830719 3.748406,-4.392304 9.080558,-5.592878 14.4375,-7.1875 1.407777,-0.431312 1.407777,-0.431312 2.843994,-0.871338 2.081762,-0.6356792 4.165109,-1.2661809 6.249756,-1.8923339 3.111886,-0.940925 6.216649,-1.9012679 9.319687,-2.8707733 2.694399,-0.8402159 5.391633,-1.6710552 8.089523,-2.4999847 1.322245,-0.4075704 2.643614,-0.8179937 3.964051,-1.2313843 1.871317,-0.5842441 3.747027,-1.15436057 5.622833,-1.72402955 1.080154,-0.33249756 2.160307,-0.66499512 3.273193,-1.00756836 C -8.3493415,-1.6395195 -4.3829599,-2.0453813 0,0 Z"
         fill="#01b7ad"
         transform="translate(410.8125,272.3125)"
         id="leftnote"
         style="stroke:#002d56;stroke-width:1.00098;stroke-dasharray:none;stroke-opacity:1" /><path
         d="M 0,0 C 0.99214005,0.30362961 1.9842801,0.60725922 3.006485,0.92008972 5.0980893,1.5620575 7.188275,2.2086636 9.2770996,2.8596191 12.455944,3.8502605 15.638581,4.8277754 18.822266,5.8027344 20.860912,6.4302281 22.899331,7.0584592 24.9375,7.6875 c 0.942944,0.290749 1.885888,0.5814981 2.857407,0.8810577 14.435178,4.5031953 14.435178,4.5031953 18.427749,7.4744113 3.620606,8.275671 -4.838317,23.72292 -7.675537,32.072265 -0.953233,2.813865 -1.891784,5.632378 -2.830322,8.451172 -0.61043,1.802388 -1.221728,3.604482 -1.833985,5.40625 -0.276176,0.836511 -0.552353,1.673022 -0.836898,2.534882 -1.555063,4.515913 -3.101352,8.05344 -6.510758,11.535431 -2.90625,1.300781 -2.90625,1.300781 -6.5,2.3125 -0.66709,0.191667 -1.334179,0.383335 -2.021484,0.58081 -1.558574,0.446161 -3.119324,0.884756 -4.681641,1.317627 -3.276995,0.924516 -6.5359525,1.903137 -9.7968747,2.882813 -2.4996965,0.740608 -4.9996985,1.480187 -7.5000001,2.21875 -1.8069433,0.542977 -1.8069433,0.542977 -3.6503906,1.096924 -11.8899566,3.446928 -11.8899566,3.446928 -17.8496096,2.590576 -2.094354,-2.110311 -2.931834,-3.414332 -3.277542,-6.384583 0.04607,-0.885324 0.09214,-1.770648 0.139603,-2.6828 0.04534,-1.011894 0.09069,-2.023788 0.137405,-3.066345 0.06592,-1.095401 0.131837,-2.190802 0.199753,-3.319397 0.05742,-1.148092 0.114837,-2.296183 0.173996,-3.479065 0.190866,-3.690506 0.406739,-7.378938 0.626785,-11.06781 0.06705,-1.192141 0.134103,-2.384282 0.203186,-3.612549 0.404468,-7.176335 0.861339,-14.347538 1.361512,-21.517822 0.167617,-2.448373 0.327228,-4.897305 0.479492,-7.34668 0.22458,-3.607993 0.472261,-7.213732 0.725342,-10.819824 0.06371,-1.090527 0.127425,-2.181054 0.193069,-3.304627 0.448731,-5.9599774 1.039801,-9.8486039 5.037399,-14.3984982 C -13.329589,-5.0246585 -6.0635958,-1.9046214 0,0 Z"
         fill="#01b7ad"
         id="rightnote"
         transform="translate(633.46484,273.95703)"
         style="stroke:#002d56;stroke-width:1.00098;stroke-dasharray:none;stroke-opacity:1" /><path
         d="M 0,0 C 0.75023437,-0.00773438 1.5004687,-0.01546875 2.2734375,-0.0234375 6.3089541,0.66032113 8.8547661,2.3432113 11.292969,5.609375 12.045137,6.8546094 12.045137,6.8546094 12.8125,8.125 18.807032,16.962432 27.96371,22.470961 38.336914,24.975098 54.480585,27.796623 70.016287,26.04346 83.9375,17.25 88.66034,13.71956 92.161725,9.4056244 95.714844,4.7304687 97.900386,2.0354139 99.488577,0.51892194 103,0.07421875 104.29937,0.06841797 104.29937,0.06841797 105.625,0.0625 106.49125,0.04574219 107.3575,0.02898438 108.25,0.01171875 110.625,0.375 110.625,0.375 112.43359,1.609375 c 2.01992,2.9934433 1.35771,5.5541297 0.89454,9.007813 -1.24216,4.872015 -3.79602,8.708376 -6.70313,12.757812 -0.45504,0.639375 -0.91008,1.27875 -1.37891,1.9375 C 96.489004,36.48964 80.763016,44.248835 66.852539,46.155273 51.606942,47.659114 36.784167,47.634842 22.625,41.375 21.615664,40.928984 20.606328,40.482969 19.566406,40.023437 9.1477749,34.850247 -0.57006857,26.223877 -6.25,16 -7.5593573,11.78096 -8.2409706,7.7557925 -7.375,3.375 -5.2482134,0.41079122 -3.5740235,-0.0365941 0,0 Z"
         fill="#002c56"
         transform="translate(459.375,541.625)"
         id="smile"
         style="stroke:#002d56;stroke-width:1.00098;stroke-dasharray:none;stroke-opacity:1" /><path
         d="M 0,0 C 4.5302977,2.1330559 6.5093542,5.3694764 8.2109375,9.8554688 10.115712,17.237878 9.4473295,23.81091 6.015625,30.601562 c -2.1778033,3.448809 -4.3588609,4.55061 -8.1445313,5.8125 -4.9310505,0.39707 -9.6285067,0.550038 -13.9999997,-2 -4.315543,-3.82514 -5.869713,-5.94104 -6.238281,-11.765625 -0.03053,-1.494684 -0.05505,-2.989501 -0.07422,-4.484375 -0.029,-0.738632 -0.05801,-1.477265 -0.08789,-2.238281 -0.06484,-5.655996 1.197503,-8.8438066 4.400391,-13.5117185 C -13.374268,-2.0524158 -6.0014215,-1.6517674 0,0 Z"
         fill="#002d57"
         transform="translate(471.12891,480.58594)"
         id="lefteye"
         style="stroke:#002d56;stroke-width:1.00098;stroke-dasharray:none;stroke-opacity:1" /><path
         d="m 0,0 c 4.2698551,1.7855758 6.2524227,3.9420604 8.375,7.9375 2.736519,6.915722 2.776785,14.607145 0.4375,21.625 C 6.0511648,33.27602 3.4005545,35.533149 -1,37 -5.8870459,37.393526 -10.713748,37.619376 -15,35 -21.122358,28.599353 -21.364314,23.879537 -21.277344,15.269531 -20.765573,9.2364041 -18.715527,5.6736852 -14.4375,1.5 -9.5423372,-0.63607103 -5.2589363,-0.74455879 0,0 Z"
         fill="#002d56"
         transform="translate(566,480)"
         id="righteye"
         style="stroke:#002d56;stroke-width:1.00098;stroke-dasharray:none;stroke-opacity:1" /><g
         id="CentreNote"
         style="stroke:#002d56;stroke-width:1.00098;stroke-dasharray:none;stroke-opacity:1"><path
           d="m 0,0 c 1.1552316,-0.00571014 2.3104633,-0.01142029 3.5007019,-0.01730347 1.2737851,-0.0011179 2.5475702,-0.0022357 3.8599548,-0.0033875 1.3501499,-0.0046275 2.7002983,-0.0096521 4.0504453,-0.01504516 3.673721,-0.01313446 7.347423,-0.01957128 11.021163,-0.02401066 2.295278,-0.0029298 4.590552,-0.0070344 6.885827,-0.01150418 7.181445,-0.01367923 14.362877,-0.02334314 21.544334,-0.02720189 8.289426,-0.0044785 16.578687,-0.0220146 24.868063,-0.05100059 6.406878,-0.0216252 12.81371,-0.0317042 19.220625,-0.0330405 3.826548,-0.001048 7.652946,-0.006947 11.479446,-0.0248196 3.6017,-0.0164947 7.20312,-0.0186295 10.80483,-0.009861 1.94786,0.001136 3.8957,-0.0125716 5.8435,-0.0267525 10.93972,0.0522284 10.93972,0.0522284 15.48196,3.38436895 2.95864,3.1964333 3.37269,5.3338048 3.36077,9.6441041 0.006,1.724735 0.006,1.724735 0.0125,3.484314 -0.0108,1.257319 -0.0216,2.514639 -0.0327,3.810058 -8.5e-4,1.340475 -3.7e-4,2.68095 0.001,4.021424 8.6e-4,3.636133 -0.0168,7.271968 -0.0377,10.908032 -0.0187,3.800986 -0.0205,7.601978 -0.0241,11.403003 -0.009,7.196457 -0.034,14.392777 -0.0641,21.589174 -0.0335,8.193388 -0.05,16.386782 -0.0651,24.580222 -0.0314,16.853297 -0.0841,33.706467 -0.15097,50.559667 -4.05565,1.21787 -8.11139,2.43544 -12.16721,3.65274 -1.3742,0.41249 -2.74836,0.82506 -4.12251,1.23771 -11.1471,3.34738 -22.29708,6.68366 -33.478344,9.91546 -1.778603,0.51619 -3.5559,1.03689 -5.332032,1.56152 -2.659085,0.7849 -5.321859,1.55589 -7.985839,2.32398 -1.174946,0.35138 -1.174946,0.35138 -2.373627,0.70985 -8.558,2.43121 -15.308912,1.72197 -23.708405,-0.74501 -1.298514,-0.36746 -1.298514,-0.36746 -2.62326,-0.74235 -2.801598,-0.79503 -5.598843,-1.60434 -8.396271,-2.4139 -1.9293,-0.55031 -3.858908,-1.09954 -5.788818,-1.6477 -3.856994,-1.09615 -7.712686,-2.19671 -11.567627,-3.30005 -4.881377,-1.39338 -9.77075,-2.75509 -14.6669925,-4.09522 -0.6841346,-0.18728 -1.3682693,-0.37457 -2.0731353,-0.56753 -3.1360797,-0.85728 -6.2729646,-1.71158 -9.410019,-2.56528 -1.6228894,-0.44473 -1.6228894,-0.44473 -3.2785644,-0.89844 -1.3961755,-0.38031 -1.3961755,-0.38031 -2.8205566,-0.76831 -2.2067872,-0.65747 -2.2067872,-0.65747 -4.2067872,-1.65747 -0.1168,-17.77616 -0.204972,-35.55222 -0.259061,-53.328683 -0.02578,-8.253931 -0.06093,-16.507625 -0.118136,-24.761403 -0.04983,-7.193987 -0.08209,-14.3878 -0.09324,-21.581955 -0.0065,-3.809372 -0.02184,-7.618251 -0.05821,-11.427465 -0.03396,-3.586169 -0.0444,-7.171641 -0.03689,-10.757956 -0.002,-1.942169 -0.02892,-3.884263 -0.05656,-5.826237 0.05628,-9.4956611 0.05628,-9.4956611 3.032578,-12.5752866 C -6.2993286,0.37410785 -4.4690662,0.01318816 0,0 Z"
           fill="#35d6c6"
           id="path4"
           style="stroke:#002d56;stroke-width:1.00098;stroke-dasharray:none;stroke-opacity:1"
           transform="translate(447.43915,226.85956)" /><path
           d="m 447.43955,226.85956 3.5007,-0.0173 3.85996,-0.003 c 1.35015,-0.005 2.7003,-0.01 4.05044,-0.015 3.67372,-0.0131 7.34743,-0.0196 11.02117,-0.024 2.29527,-0.003 4.59055,-0.007 6.88582,-0.0115 7.18145,-0.0137 14.36288,-0.0233 21.54434,-0.0272 8.28942,-0.004 16.57868,-0.022 24.86806,-0.051 6.40688,-0.0216 12.81371,-0.0317 19.22062,-0.033 3.82655,-0.001 7.65295,-0.007 11.47945,-0.0248 3.6017,-0.0165 7.20312,-0.0186 10.80483,-0.01 1.94786,10e-4 3.8957,-0.0126 5.8435,-0.0267 10.93972,0.0522 10.93972,0.0522 15.48196,3.38437 2.95864,3.19643 3.37269,5.3338 3.36077,9.6441 l 0.0125,3.48432 -0.0327,3.81006 c -8.5e-4,1.34047 -3.7e-4,2.68095 10e-4,4.02142 8.6e-4,3.63613 -0.0168,7.27197 -0.0377,10.90803 -0.0187,3.80099 -0.0205,7.60198 -0.0241,11.403 -0.009,7.19646 -0.034,14.39278 -0.0641,21.58918 -0.0335,8.19339 -0.05,16.38678 -0.0651,24.58022 -0.0314,16.8533 -0.0841,33.70647 -0.15097,50.55967 -3.76809,1.17058 -7.54,2.3278 -11.31592,3.4729 -1.91377,0.58341 -3.82434,1.17727 -5.73486,1.77124 l -3.65234,1.10352 -3.36426,1.03149 C 562.09383,377.98014 563.49134,377.29605 564,376 v 0 -103 l -7,-1 c -3.90798,-3.10863 -6.34376,-6.29281 -8,-11 v -11 h -73.9996 v 11 c -1.78427,5.27847 -3.08284,7.86712 -8,10.5 -3.06299,1.38792 -4.45175,1.5 -8,1.5 v 103 c -7.875,-1.125 -7.875,-1.125 -11.40234,-2.1914 l -2.25586,-0.67383 -2.2793,-0.69727 -2.36133,-0.70898 c -1.90174,-0.57169 -3.80165,-1.14948 -5.70117,-1.72852 -0.1168,-17.77616 -0.20497,-35.55222 -0.25906,-53.32869 -0.0258,-8.25393 -0.0609,-16.50762 -0.11813,-24.7614 -0.0498,-7.19399 -0.0821,-14.3878 -0.0932,-21.58195 -0.007,-3.80938 -0.0218,-7.61825 -0.0582,-11.42747 -0.034,-3.58617 -0.0444,-7.17164 -0.0369,-10.75795 -0.002,-1.94217 -0.0289,-3.88427 -0.0566,-5.82624 0.0563,-9.49566 0.0563,-9.49566 3.03257,-12.57529 3.72934,-2.50734 5.5596,-2.86826 10.02867,-2.88145 z"
           fill="#00b7ad"
           id="path5-5"
           style="stroke:#002d56;stroke-width:1.00098;stroke-dasharray:none;stroke-opacity:1"
           sodipodi:nodetypes="ccccccsccccccccccccccccccccccccccccccccccccscccccc" /><path
           d="m 0,0 c 7.088316,5.9935527 13.441909,14.215057 14.9375,23.5625 0.01956,1.999904 0.02228,4.000124 0,6 -4.249468,1.314227 -8.4996641,2.626083 -12.75,3.9375 -1.2065625,0.373184 -2.413125,0.746367 -3.65625,1.130859 -1.1601563,0.357715 -2.3203125,0.71543 -3.515625,1.083985 -1.0683105,0.329919 -2.1366211,0.659839 -3.2373047,0.999756 -1.406206,0.41971 -1.406206,0.41971 -2.8408203,0.8479 -0.930542,0.304662 -0.930542,0.304662 -1.879883,0.615479 -6.250635,1.133665 -11.839818,0.238197 -17.866211,-1.513917 -0.696582,-0.195021 -1.393164,-0.390042 -2.110855,-0.590972 -1.455933,-0.410272 -2.910439,-0.825644 -4.36351,-1.245942 -2.232018,-0.643969 -4.469002,-1.26781 -6.707275,-1.889648 -1.418953,-0.402473 -2.837586,-0.806077 -4.25586,-1.210938 C -48.915797,31.540021 -49.5855,31.35348 -50.275497,31.161285 -51.89,30.688475 -53.479732,30.132598 -55.0625,29.5625 -56.693581,26.300338 -55.07395,23.554703 -53.996094,20.210937 -50.446015,10.140002 -43.793331,0.53143476 -34.0625,-4.4375 -22.148937,-8.5456252 -10.187774,-7.458629 0,0 Z"
           fill="#00b6ad"
           id="path9-6"
           transform="translate(532.0625,352.4375)"
           style="stroke:#002d56;stroke-width:1.00098;stroke-dasharray:none;stroke-opacity:1" /><path
           d="M 0,0 C 3.4836182,2.2449984 7.0715085,4.5848356 8.4296875,8.6679688 9.4077114,14.146899 9.611391,19.086895 7.25,24.1875 c -4.1562439,4.475955 -7.86116853,6.814455 -13.9375,7.125 -5.604472,-0.26779 -9.566484,-2.373133 -13.375,-6.5625 -2.750254,-4.736549 -2.6908,-9.618984 -2.125,-14.9375 1.29608,-4.138088 3.634656,-7.0631205 7.25,-9.4375 C -9.8665031,-2.1442105 -5.3234684,-1.9832529 0,0 Z"
           fill="#00b6ad"
           id="path12"
           transform="translate(519.1875,302.1875)"
           style="stroke:#002d56;stroke-width:1.00098;stroke-dasharray:none;stroke-opacity:1" /><text
           xml:space="preserve"
           id="text67"
           style="text-align:start;writing-mode:lr-tb;direction:ltr;white-space:pre;shape-inside:url(#rect67);display:inline;fill:none;fill-opacity:1;stroke:#002d56;stroke-width:1.00098;stroke-dasharray:none;stroke-opacity:1" /></g><g
         id="PocketStiches"
         style="stroke:#002d56;stroke-width:1.00098;stroke-dasharray:none;stroke-opacity:1"><path
           d="m 0,0 c 19.042799,0.24701744 19.042799,0.24701744 22.0625,2.5859375 1.943151,2.5564582 1.638153,4.5393102 1.25,7.6445315 -1.007813,1.667969 -1.007813,1.667969 -3,3 -2.836978,0.273692 -5.420073,0.372968 -8.25,0.3125 -1.107949,0.0048 -1.107949,0.0048 -2.2382812,0.0098 -4.8428908,-0.04701 -8.9684905,-0.59841 -13.5117188,-2.3223 -2,-3.0000002 -2,-3.0000002 -1.75,-6.0625003 C -4.488065,1.4493484 -3.9033945,0.33473877 0,0 Z"
           fill="#002c56"
           transform="translate(481.6875,438.76953)"
           id="path13"
           style="stroke:#002d56;stroke-width:1.00098;stroke-dasharray:none;stroke-opacity:1" /><path
           d="m 0,0 c 4.8486412,0.03513508 9.2184589,0.95034398 13.875,2.1875 0.658872,0.1736206 1.317744,0.3472412 1.996582,0.526123 2.971675,0.8361941 4.786199,1.3816579 7.003418,3.598877 0.344903,4.052613 0.301639,5.547542 -2,9 C 12.933333,16.254732 1.5355465,14.664009 -5.0859375,9.9023438 -6.125,8.3125 -6.125,8.3125 -5.875,4.6875 -4.8576157,0.10927048 -4.411035,0.13829978 0,0 Z"
           fill="#002c56"
           transform="translate(398.125,423.6875)"
           id="path14"
           style="stroke:#002d56;stroke-width:1.00098;stroke-dasharray:none;stroke-opacity:1" /><path
           d="M 0,0 C 0.70640625,-0.020625 1.4128125,-0.04125 2.140625,-0.0625 7.2326789,-0.10107617 7.2326789,-0.10107617 9.7070313,1.578125 11.367342,4.2395961 11.194681,6.2007555 10.75,9.25 8.5403067,11.920046 6.7648402,12.246977 3.375,12.9375 -2.7783346,13.496894 -9.0910093,13.726877 -15.25,13.25 c -2,-2 -2,-2 -2.265625,-3.875 0.0052,-0.70125 0.01031,-1.4025 0.01563,-2.125 -0.0052,-0.70125 -0.01031,-1.4025 -0.01563,-2.125 C -17.25,3.25 -17.25,3.25 -15.25,1.25 -10.174063,0.25521831 -5.1536594,0.03846014 0,0 Z"
           fill="#002a55"
           transform="translate(537.25,438.75)"
           id="path15"
           style="stroke:#002d56;stroke-width:1.00098;stroke-dasharray:none;stroke-opacity:1" /><path
           d="m 0,0 c 6.6343811,0.11408327 16.301562,0.42656171 21.1875,5.3125 0.25,3.5 0.25,3.5 0,7 -2.50389,2.50389 -3.347018,2.297278 -6.8125,2.3125 -6.6343811,-0.114083 -16.3015617,-0.426562 -21.1875,-5.3125 -0.25,-3.5 -0.25,-3.5 0,-7 C -4.3086104,-0.19138957 -3.4654818,0.01522174 0,0 Z"
           fill="#002b56"
           transform="translate(440.8125,432.6875)"
           id="path16"
           style="stroke:#002d56;stroke-width:1.00098;stroke-dasharray:none;stroke-opacity:1" /><path
           d="M 0,0 C 2,2 2,2 2.4375,5.4375 2,9 2,9 -0.0625,10.613281 c -3.4388546,1.623396 -6.6448125,2.400448 -10.375,3.136719 -1.277461,0.262969 -2.554922,0.525938 -3.871094,0.796875 C -17.921816,14.990403 -20.510624,15.007243 -24,14 -26.155025,10.767462 -26.468561,9.7484908 -26,6 -22.882212,1.6262832 -17.532904,1.5402452 -12.601563,0.5703125 -8.2330947,-0.12144053 -4.4067272,-0.36722726 0,0 Z"
           fill="#002955"
           transform="translate(588,433)"
           id="path17"
           style="stroke:#002d56;stroke-width:1.00098;stroke-dasharray:none;stroke-opacity:1" /><path
           d="M 0,0 C 2,2 2,2 2.3125,4.9375 2,8 2,8 0.96484375,9.5546875 -1.9766665,11.718423 -5.2539052,12.367704 -8.75,13.1875 -9.7864063,13.453369 -9.7864063,13.453369 -10.84375,13.724609 -15.289875,14.80689 -19.394337,15.352947 -24,15 -26,13 -26,13 -26.4375,9.5625 -26,6 -26,6 -24.1875,4.25 -16.44531,1.2138471 -8.399921,-1.2657415 0,0 Z"
           fill="#002a55"
           transform="translate(630,424)"
           id="path18"
           style="stroke:#002d56;stroke-width:1.00098;stroke-dasharray:none;stroke-opacity:1" /></g><text
         xml:space="preserve"
         id="text68"
         style="font-size:96px;text-align:start;writing-mode:lr-tb;direction:ltr;white-space:pre;shape-inside:url(#rect68);display:inline;fill:none;fill-opacity:1;stroke:#002d56;stroke-width:1.00098;stroke-dasharray:none;stroke-opacity:1" /></g><g
       id="logoi1"><g
         id="g25"
         transform="matrix(0.9995969,0,0,0.99151629,33.94457,-8.3573137)"
         style="stroke:#35d6c6;stroke-opacity:1"><path
           style="font-weight:bold;font-size:85.121px;line-height:1.6;-inkscape-font-specification:'sans-serif Bold';text-align:center;text-anchor:middle;fill:#002d56;fill-opacity:1;stroke:#35d6c6;stroke-width:0.266003;stroke-opacity:1"
           d="M 73.909047,93.646719 H 58.865751 V 47.221624 h 15.043296 z"
           id="path1" /></g><ellipse
         style="opacity:1;fill:#002d56;fill-opacity:1;stroke:#35d6c6;stroke-width:0.264583;stroke-opacity:1"
         id="path24"
         cx="99.958237"
         cy="29.224691"
         rx="6.7004547"
         ry="7.1103392" /></g><g
       id="logoi2"><path
         style="font-weight:bold;font-size:85.121px;line-height:1.6;-inkscape-font-specification:'sans-serif Bold';text-align:center;text-anchor:middle;fill:#002d56;fill-opacity:1;stroke:#35d6c6;stroke-width:0.264819;stroke-opacity:1"
         d="M 230.67472,84.494689 H 215.63749 V 38.46345 h 15.03723 z"
         id="path5" /><ellipse
         style="fill:#002d56;fill-opacity:1;stroke:#35d6c6;stroke-width:0.264583;stroke-opacity:1"
         id="path24-9"
         cx="222.48393"
         cy="29.224691"
         rx="6.7004547"
         ry="7.1103392" /></g></g></svg>
