<?xml version="1.0" encoding="UTF-8"?>
<svg width="400" height="100" viewBox="0 0 400 100" xmlns="http://www.w3.org/2000/svg">
  <!-- Clean FinWiser text logo without any turquoise colors -->
  
  <!-- F -->
  <path d="M20 20 L20 80 L60 80 L60 70 L30 70 L30 55 L55 55 L55 45 L30 45 L30 30 L60 30 L60 20 Z" 
        fill="#002D56" stroke="#35d6c6" stroke-width="0.5"/>
  
  <!-- i -->
  <circle cx="75" cy="25" r="3" fill="#002D56" stroke="#35d6c6" stroke-width="0.5"/>
  <rect x="72" y="35" width="6" height="45" fill="#002D56" stroke="#35d6c6" stroke-width="0.5"/>
  
  <!-- n -->
  <path d="M90 35 L90 80 L100 80 L100 55 C100 50 102 48 106 48 C110 48 112 50 112 55 L112 80 L122 80 L122 55 C122 42 116 35 106 35 C102 35 98 37 96 40 L96 35 Z" 
        fill="#002D56" stroke="#35d6c6" stroke-width="0.5"/>
        
  <!-- W (mascot placeholder) -->
  <circle cx="150" cy="52" r="25" fill="#35d6c6" stroke="#002D56" stroke-width="2"/>
  <text x="150" y="58" text-anchor="middle" font-family="Arial" font-size="24" font-weight="bold" fill="#002D56">W</text>
  
  <!-- i -->
  <circle cx="185" cy="25" r="3" fill="#002D56" stroke="#35d6c6" stroke-width="0.5"/>
  <rect x="182" y="35" width="6" height="45" fill="#002D56" stroke="#35d6c6" stroke-width="0.5"/>
  
  <!-- s -->
  <path d="M200 45 C200 40 204 35 212 35 C220 35 224 40 224 45 L214 45 C214 42 213 42 212 42 C211 42 210 42 210 45 C210 48 211 48 216 50 C222 52 224 55 224 62 C224 70 220 75 212 75 C204 75 200 70 200 62 L210 62 C210 65 211 65 212 65 C213 65 214 65 214 62 C214 59 213 59 208 57 C202 55 200 52 200 45 Z" 
        fill="#002D56" stroke="#35d6c6" stroke-width="0.5"/>
  
  <!-- e -->
  <path d="M235 50 C235 42 240 35 250 35 C260 35 265 42 265 50 L265 55 L245 55 C245 62 246 65 250 65 C254 65 255 62 255 60 L265 60 C265 68 260 75 250 75 C240 75 235 68 235 50 Z M245 48 L255 48 C255 45 254 42 250 42 C246 42 245 45 245 48 Z" 
        fill="#002D56" stroke="#35d6c6" stroke-width="0.5"/>
  
  <!-- r -->
  <path d="M275 35 L275 80 L285 80 L285 58 C285 52 287 48 292 48 L295 48 L295 35 L292 35 C288 35 285 37 285 40 L285 35 Z" 
        fill="#002D56" stroke="#35d6c6" stroke-width="0.5"/>
</svg>